<svg width="1200" height="900" viewBox="0 0 1200 900" fill="none" xmlns="http://www.w3.org/2000/svg">
  <rect width="1200" height="900" fill="#F6EFE6"/>
  <rect x="96" y="110" width="452" height="600" rx="18" transform="rotate(-5 96 110)" fill="#FFFAF4"/>
  <rect x="636" y="110" width="392" height="278" rx="18" transform="rotate(4 636 110)" fill="#A1B5B6"/>
  <rect x="594" y="452" width="468" height="270" rx="18" transform="rotate(-2 594 452)" fill="#D8C0A8"/>
  <path d="M672 334C736 250 842 228 981 268C1009 276 1030 286 1046 300V391H648L672 334Z" fill="#4E6873"/>
  <circle cx="286" cy="300" r="110" fill="#DABEA1"/>
  <path d="M204 522C264 472 349 470 409 522" stroke="#8D664A" stroke-width="18" stroke-linecap="round"/>
  <path d="M678 582H978" stroke="#FFF8F0" stroke-width="12" stroke-linecap="round"/>
  <path d="M678 620H930" stroke="#FFF8F0" stroke-width="12" stroke-linecap="round" opacity="0.7"/>
</svg>
