<svg width="1200" height="900" viewBox="0 0 1200 900" fill="none" xmlns="http://www.w3.org/2000/svg">
  <rect width="1200" height="900" fill="#F7EFE4"/>
  <rect x="66" y="76" width="500" height="620" rx="18" transform="rotate(-6 66 76)" fill="#FFF9F1"/>
  <rect x="708" y="112" width="360" height="286" rx="18" transform="rotate(6 708 112)" fill="#EAD5C2"/>
  <rect x="640" y="436" width="406" height="290" rx="18" transform="rotate(-4 640 436)" fill="#D5B497"/>
  <circle cx="831" cy="259" r="98" fill="#C08C60"/>
  <circle cx="293" cy="298" r="126" fill="#D8BEA6"/>
  <path d="M202 469C264 401 350 392 420 454" stroke="#8D6244" stroke-width="18" stroke-linecap="round"/>
  <path d="M729 588C793 526 881 524 937 583" stroke="#FFF9F1" stroke-width="16" stroke-linecap="round"/>
  <path d="M762 195H971" stroke="#FFF9F1" stroke-width="12" stroke-linecap="round"/>
  <path d="M762 231H1015" stroke="#FFF9F1" stroke-width="12" stroke-linecap="round" opacity="0.7"/>
  <path d="M166 640H495" stroke="#8D6244" stroke-width="12" stroke-linecap="round" opacity="0.8"/>
  <path d="M166 678H449" stroke="#8D6244" stroke-width="12" stroke-linecap="round" opacity="0.45"/>
</svg>
