<svg width="1200" height="900" viewBox="0 0 1200 900" fill="none" xmlns="http://www.w3.org/2000/svg">
  <rect width="1200" height="900" fill="#F6EFE7"/>
  <rect x="132" y="100" width="410" height="590" rx="18" transform="rotate(4 132 100)" fill="#FFF9F3"/>
  <rect x="583" y="88" width="470" height="340" rx="18" transform="rotate(-5 583 88)" fill="#E5D4C5"/>
  <rect x="590" y="490" width="430" height="256" rx="18" transform="rotate(5 590 490)" fill="#7B948E"/>
  <path d="M641 324C705 228 815 200 954 231C997 240 1023 260 1051 286V417H612L641 324Z" fill="#AFC5C3"/>
  <path d="M616 401C699 287 802 256 935 284C987 295 1017 318 1051 360V417H616V401Z" fill="#4B6A72"/>
  <circle cx="849" cy="181" r="51" fill="#F6D9AA"/>
  <path d="M240 510C287 459 352 451 402 493" stroke="#A67550" stroke-width="18" stroke-linecap="round"/>
  <path d="M214 560C276 506 367 502 430 559" stroke="#D3B293" stroke-width="18" stroke-linecap="round"/>
  <path d="M675 589H945" stroke="#F5F0E8" stroke-width="12" stroke-linecap="round"/>
  <path d="M675 627H1014" stroke="#F5F0E8" stroke-width="12" stroke-linecap="round" opacity="0.75"/>
</svg>
