<svg width="1200" height="900" viewBox="0 0 1200 900" fill="none" xmlns="http://www.w3.org/2000/svg">
  <rect width="1200" height="900" fill="#F7F0E8"/>
  <rect x="106" y="114" width="422" height="598" rx="18" transform="rotate(-5 106 114)" fill="#FFFAF4"/>
  <rect x="640" y="96" width="380" height="280" rx="18" transform="rotate(7 640 96)" fill="#DDBA9C"/>
  <rect x="582" y="426" width="478" height="304" rx="18" transform="rotate(-3 582 426)" fill="#D7C2AF"/>
  <path d="M256 281C309 245 377 250 423 292" stroke="#8F6A56" stroke-width="18" stroke-linecap="round"/>
  <path d="M214 340H430" stroke="#C59A75" stroke-width="12" stroke-linecap="round"/>
  <path d="M214 386H388" stroke="#C59A75" stroke-width="12" stroke-linecap="round" opacity="0.7"/>
  <path d="M675 548C731 490 813 482 879 525C910 544 933 570 957 601" stroke="#FFF8F0" stroke-width="16" stroke-linecap="round"/>
  <circle cx="860" cy="225" r="88" fill="#B27D58"/>
  <circle cx="755" cy="613" r="64" fill="#F0E0D0"/>
  <path d="M665 171H944" stroke="#FFF8F0" stroke-width="12" stroke-linecap="round"/>
  <path d="M665 208H909" stroke="#FFF8F0" stroke-width="12" stroke-linecap="round" opacity="0.7"/>
</svg>
